# xmcd
#
# Track frame offsets:
#	150
#	14205
#	26827
#	41956
#	53535
#	65695
#	77217
#	91018
#	104787
#	118888
#	131892
#	142770
#	156944
#	171217
#	181369
#	195733
#	209184
#	222396
#
# Disc length: 3114 seconds
#
# Revision: 1
# Processed by: cddbd v1.5.2PL0 Copyright (c) Steve Scherf et al.
# Submitted via: audiograbber 1.83.01
#
DISCID=1d0c2812
DTITLE=Muddy Waters - Satisfied - The Best Of Muddy Waters
DYEAR=2006
DGENRE=Blues
TTITLE0=Rollin' Stone
TTITLE1=Turn Your Lamp Down Low (Baby Please Don't Go)
TTITLE2=Honey Bee
TTITLE3=You're Gonna Miss Me
TTITLE4=I Can't Be Satisfied
TTITLE5=She's All Right
TTITLE6=Who's Gonna Be Your Sweet Man
TTITLE7=Mad Love (I Want To Love Me)
TTITLE8=Sad Sad Day
TTITLE9=Louisianna Blues
TTITLE10=Loving Man
TTITLE11=I Feel Like Going Home
TTITLE12=Blow Wind Blow
TTITLE13=Mean Red Spider
TTITLE14=Please Have Mercy
TTITLE15=Rollin' And Tumblin'
TTITLE16=She Moves Me
TTITLE17=Gone To Main Street
EXTD=Horizon HZCD1033
EXTT0=
EXTT1=
EXTT2=
EXTT3=
EXTT4=
EXTT5=
EXTT6=
EXTT7=
EXTT8=
EXTT9=
EXTT10=
EXTT11=
EXTT12=
EXTT13=
EXTT14=
EXTT15=
EXTT16=
EXTT17=
PLAYORDER=
